<svg id="Capa_1" enable-background="new 0 0 512.002 512.002" height="512" viewBox="0 0 512.002 512.002" width="512" xmlns="http://www.w3.org/2000/svg"><g><path d="m146.001 226.001v-30c0-5.522-4.478-10-10-10s-10 4.478-10 10v30c0 5.522 4.478 10 10 10s10-4.478 10-10z"/><path d="m366.001 226.001v60c0 5.522 4.478 10 10 10s10-4.478 10-10v-60c0-5.522-4.478-10-10-10s-10 4.477-10 10z"/><path d="m230.472 337.056c-4.94-2.471-10.946-.469-13.416 4.473l-29.274 58.548-28.853 28.853c-3.905 3.905-3.905 10.237 0 14.143 3.907 3.905 10.236 3.904 14.143 0l30-30c.76-.76 1.393-1.638 1.873-2.6l30-60c2.47-4.94.468-10.947-4.473-13.417z"/><circle cx="196.001" cy="502.001" r="10"/><path d="m507.549 493.681c-58.557-39.04-112.727-95.745-148.623-155.575l-20.062-33.432c-3.248-5.41-7.635-9.872-12.863-13.18v-127.535c10.607-5.465 19.148-14.272 24.339-25.027 3.52.711 7.082 1.069 10.661 1.069 30.327 0 55-24.673 55-55s-24.673-55-55-55c-8.852 0-17.483 2.163-25.25 6.234-11.661-21.421-42.774-36.234-79.75-36.234s-68.089 14.813-79.75 36.234c-7.767-4.071-16.398-6.234-25.25-6.234-30.327 0-55 24.673-55 55s24.673 55 55 55c3.579 0 7.142-.358 10.66-1.069 5.188 10.753 13.733 19.546 24.34 25.011v87.986c-9.383 3.948-16.831 11.301-21.012 21.034l-25.569 59.679c-26.706 62.303-77.161 122.504-134.966 161.039-3.666 2.444-5.301 7-4.024 11.218s5.165 7.103 9.571 7.103h141c5.522 0 10-4.478 10-10s-4.478-10-10-10h-110.4c50.232-40.077 92.969-94.949 117.202-151.481l25.565-59.671c2.663-6.2 7.957-10.482 14.53-11.749 6.347-1.227 15.059.372 20.501 8.529l14.585 21.872c11.38 17.1 33.525 22.428 51.185 13.602l11.453-5.737c9.231-4.614 20.649-1.469 26.093 7.602l20.06 33.429c32.075 53.462 78.161 104.521 129.11 143.605h-89.342l-57.062-91.3c-1.615-2.584-4.321-4.291-7.349-4.636-3.02-.344-6.047.709-8.203 2.864l-30 30c-3.905 3.905-3.905 10.237 0 14.143 3.906 3.904 10.236 3.904 14.143 0l21.111-21.111 43.775 70.04h-116.957c-5.522 0-10 4.478-10 10s4.478 10 10 10h261c4.406 0 8.294-2.885 9.571-7.102 1.276-4.22-.357-8.776-4.023-11.22zm-220.876-204.202-11.453 5.737c-2.916 1.458-6.06 2.147-9.219 2.098v-71.314c0-5.522-4.478-10-10-10s-10 4.478-10 10v56.969l-10.962-16.439c-6.717-10.066-17.414-16.346-29.038-17.579v-79.181c1.656.15 3.323.231 5 .231 30.327 0 55-24.673 55-55 0-5.522-4.478-10-10-10s-10 4.478-10 10c0 19.299-15.701 35-35 35-16.125 0-29.568-10.948-33.617-25.903-1.563-5.775-7.822-8.895-13.378-6.667-4.248 1.706-8.623 2.57-13.005 2.57-19.299 0-35-15.701-35-35s15.701-35 35-35c8.717 0 17.133 3.346 23.699 9.42 2.772 2.567 6.754 3.351 10.295 2.026 3.539-1.324 6.029-4.529 6.438-8.286 1.733-15.947 26.912-33.16 64.568-33.16s62.835 17.213 64.568 33.16c.408 3.757 2.898 6.962 6.438 8.286 3.539 1.322 7.521.541 10.295-2.026 6.566-6.074 14.982-9.42 23.699-9.42 19.299 0 35 15.701 35 35s-15.701 35-35 35c-4.382 0-8.757-.864-13.005-2.57-5.549-2.227-11.812.886-13.378 6.665-3.017 11.133-11.232 20.07-21.979 23.907-3.98 1.421-6.638 5.191-6.638 9.418v127.874c-6.619-.238-13.269 1.156-19.328 4.184z"/></g></svg>